<?xml version="1.0"?>
<svg xmlns="http://www.w3.org/2000/svg" viewBox="0 0 433.75 176.00" width="433.75" height="176.00">
  <title>Studio G Quatre — V1.B lockup horizontal</title>
  
  <path d="M82.80 163.60L82.80 163.60Q62.40 163.60 46.90 155.10Q31.40 146.60 22.70 130.90Q14 115.20 14 93.80L14 93.80Q14 73 22.60 57.40Q31.20 41.80 47.50 33.10Q63.80 24.40 87 24.40L87 24.40Q97.60 24.40 106.70 26.80Q115.80 29.20 124 33.80L124 33.80L124.80 61.80L122.80 61.80L111.60 41Q109 36 106.80 33.80Q104.60 31.60 101.20 30.40L101.20 30.40Q98 29.40 95.30 28.90Q92.60 28.40 88.20 28.40L88.20 28.40Q75.80 28.40 66.30 35Q56.80 41.60 51.60 56Q46.40 70.40 46.40 93.80L46.40 93.80Q46.40 117 51.30 131.60Q56.20 146.20 65.20 152.90Q74.20 159.60 86 159.60L86 159.60Q87.80 159.60 89.50 159.30Q91.20 159 92.80 158.60L92.80 158.60Q96.60 158 97.80 155.40Q99 152.80 99 149.20L99 149.20L99 109.60Q99 101.80 91 100L91 100L81.80 97.60L81.80 95.60L138.20 95.60L138.20 97.60L135.40 98.40Q127.80 100.80 127.80 108.40L127.80 108.40L127.80 151.80Q117.40 157.60 106.70 160.60Q96 163.60 82.80 163.60Z" fill="#1A1814"></path>
  <path d="M180.06 84.48L169.31 84.48L169.31 70.87L147.22 70.87L147.22 66.08L171.83 30.55L180.06 30.55L180.06 64.66L188.04 64.66L188.04 70.87L180.06 70.87L180.06 84.48ZM169.31 38.20L150.91 64.66L169.31 64.66L169.31 38.20Z" fill="#B8893A"></path>
  <rect x="218.99" y="10.00" width="2.28" height="156.00" fill="#1A1814"></rect>
  <path d="M269.44 80.66L269.44 80.66Q269.44 84.42 266.91 86.39Q264.38 88.36 259.95 88.36L259.95 88.36Q257.50 88.36 255.06 87.73Q252.62 87.10 251.21 85.83L251.21 85.83L251.96 79.84L255.94 80.21L255.90 83.15Q257.16 83.82 258.06 83.95Q258.95 84.08 259.58 84.08L259.58 84.08Q261.55 84.08 262.82 83.58Q264.08 83.08 264.08 81.25L264.08 81.25Q264.08 79.25 262.59 78.56Q261.11 77.87 259.10 77.50L259.10 77.50Q257.35 77.20 255.58 76.62Q253.82 76.05 252.62 74.73Q251.43 73.41 251.43 70.80L251.43 70.80Q251.43 66.75 254.19 65.09Q256.94 63.44 260.21 63.44L260.21 63.44Q262.59 63.44 264.75 64.16Q266.91 64.89 268.06 66.11L268.06 66.11L268.29 71.36L264.31 71.73L263.97 68.90Q263.04 68.27 262.09 68.05Q261.14 67.83 260.25 67.83L260.25 67.83Q258.76 67.83 257.78 68.35Q256.79 68.87 256.79 70.17L256.79 70.17Q256.79 71.69 258.06 72.29Q259.32 72.88 260.96 73.26L260.96 73.26Q262.45 73.55 264.44 74.09Q266.43 74.63 267.93 76.10Q269.44 77.57 269.44 80.66Z M296.22 63.81L296.97 71.99L292.73 72.36L291.98 68.05L288.15 68.05L288.15 83.75L292.09 83.75L292.09 87.99L279.45 87.99L279.45 83.75L283.17 83.75L283.17 68.05L279.33 68.05L278.59 72.36L274.35 71.99L275.09 63.81L296.22 63.81Z M326.50 63.81L326.50 68.05L324.35 68.05L324.35 77.98Q324.35 80.55 323.38 82.93Q322.41 85.31 320.14 86.83Q317.87 88.36 314.00 88.36L314.00 88.36Q308.50 88.36 306.23 85.33Q303.96 82.30 303.96 78.39L303.96 78.39L303.96 68.05L301.80 68.05L301.80 63.81L311.77 63.81L311.77 68.05L308.95 68.05L308.95 78.24Q308.95 80.73 310.15 82.35Q311.36 83.97 314.27 83.97L314.27 83.97Q317.13 83.97 318.41 82.33Q319.70 80.70 319.70 77.98L319.70 77.98L319.70 68.05L316.87 68.05L316.87 63.81L326.50 63.81Z M355.52 75.79L355.52 75.79Q355.52 81.29 352.28 84.64Q349.05 87.99 343.32 87.99L343.32 87.99L331.94 87.99L331.94 83.75L334.54 83.75L334.54 68.05L331.94 68.05L331.94 63.81L343.02 63.81Q349.23 63.81 352.38 67.12Q355.52 70.43 355.52 75.79ZM350.16 75.86L350.16 75.86Q350.16 68.05 342.91 68.05L342.91 68.05L339.52 68.05L339.52 83.75L342.91 83.75Q346.41 83.75 348.28 81.89Q350.16 80.03 350.16 75.86Z M371.07 83.75L371.07 87.99L360.88 87.99L360.88 83.75L363.48 83.75L363.48 68.05L360.88 68.05L360.88 63.81L371.07 63.81L371.07 68.05L368.47 68.05L368.47 83.75L371.07 83.75Z M401.09 75.86L401.09 75.86Q401.09 80.99 397.80 84.68Q394.51 88.36 388.63 88.36L388.63 88.36Q382.71 88.36 379.55 84.68Q376.39 80.99 376.39 75.94L376.39 75.94Q376.39 70.65 379.74 67.04Q383.09 63.44 388.78 63.44L388.78 63.44Q394.58 63.44 397.83 67.10Q401.09 70.76 401.09 75.86ZM395.70 76.01L395.70 76.01Q395.70 72.14 393.91 69.98Q392.12 67.83 388.74 67.83L388.74 67.83Q385.13 67.83 383.46 70.11Q381.78 72.40 381.78 75.82L381.78 75.82Q381.78 79.13 383.42 81.55Q385.06 83.97 388.89 83.97L388.89 83.97Q392.42 83.97 394.06 81.76Q395.70 79.54 395.70 76.01Z" fill="#1A1814"></path>
  <circle cx="410.91" cy="84.27" r="3.72" fill="#B8893A"></circle>
  <path d="M258.12 115.00L258.12 115.00Q256.04 115.00 254.47 114.03Q252.90 113.06 252.02 111.27Q251.15 109.48 251.15 107.02L251.15 107.02Q251.15 104.55 252.02 102.75Q252.90 100.96 254.45 99.99Q256.00 99.02 257.99 99.02L257.99 99.02Q259.22 99.02 260.30 99.38Q261.37 99.75 262.21 100.43Q263.06 101.11 263.62 102.04Q264.18 102.98 264.39 104.11L264.39 104.11L262.34 104.11Q262.10 103.35 261.70 102.76Q261.30 102.16 260.75 101.73Q260.21 101.31 259.52 101.08Q258.83 100.86 258.00 100.86L258.00 100.86Q256.63 100.86 255.51 101.56Q254.40 102.27 253.74 103.64Q253.08 105.02 253.08 107.02L253.08 107.02Q253.08 109.01 253.74 110.38Q254.41 111.74 255.55 112.46Q256.68 113.17 258.12 113.17L258.12 113.17Q259.43 113.17 260.44 112.61Q261.44 112.05 262.00 111.02Q262.56 109.99 262.56 108.59L262.56 108.59L263.15 108.70L258.52 108.70L258.52 106.97L264.50 106.97L264.50 108.67Q264.50 110.61 263.68 112.03Q262.85 113.45 261.41 114.23Q259.98 115.00 258.12 115.00Z" fill="#3A332E"></path>
  <circle cx="278.57" cy="112.34" r="2.46" fill="#B8893A"></circle>
  <path d="M292.49 113.40L289.86 109.93L291.93 109.93L293.66 112.20L294.10 112.81L296.69 116.26L294.63 116.26L292.93 113.98L292.49 113.40ZM290.51 115.00L290.51 115.00Q288.51 115.00 286.95 114.04Q285.39 113.07 284.49 111.28Q283.59 109.49 283.59 107.02L283.59 107.02Q283.59 104.55 284.49 102.75Q285.39 100.96 286.95 99.99Q288.51 99.02 290.51 99.02L290.51 99.02Q292.50 99.02 294.06 99.99Q295.62 100.96 296.51 102.75Q297.41 104.55 297.41 107.02L297.41 107.02Q297.41 109.49 296.51 111.28Q295.62 113.07 294.06 114.04Q292.50 115.00 290.51 115.00ZM290.51 113.17L290.51 113.17Q291.90 113.17 293.02 112.46Q294.14 111.76 294.81 110.38Q295.47 109.01 295.47 107.02L295.47 107.02Q295.47 105.02 294.81 103.64Q294.14 102.27 293.02 101.56Q291.90 100.86 290.51 100.86L290.51 100.86Q289.11 100.86 287.98 101.57Q286.85 102.28 286.19 103.65Q285.52 105.03 285.52 107.02L285.52 107.02Q285.52 109.01 286.19 110.38Q286.85 111.74 287.98 112.46Q289.11 113.17 290.51 113.17Z M315.64 115.05L315.64 115.05Q313.80 115.05 312.43 114.33Q311.05 113.60 310.30 112.35Q309.55 111.10 309.55 109.50L309.55 109.50L309.55 99.23L311.53 99.23L311.53 109.34Q311.53 110.46 312.03 111.33Q312.53 112.20 313.45 112.71Q314.37 113.21 315.64 113.21L315.64 113.21Q316.92 113.21 317.83 112.71Q318.74 112.20 319.24 111.33Q319.73 110.46 319.73 109.34L319.73 109.34L319.73 99.23L321.71 99.23L321.71 109.50Q321.71 111.10 320.96 112.35Q320.21 113.60 318.84 114.33Q317.48 115.05 315.64 115.05Z M335.23 114.80L333.12 114.80L338.78 99.23L341.08 99.23L346.80 114.80L344.71 114.80L341.41 105.56Q341.11 104.70 340.70 103.42Q340.30 102.14 339.73 100.16L339.73 100.16L340.10 100.16Q339.54 102.16 339.13 103.46Q338.71 104.76 338.44 105.56L338.44 105.56L335.23 114.80ZM343.96 110.45L335.97 110.45L335.97 108.71L343.96 108.71L343.96 110.45Z M362.26 100.98L357.36 100.98L357.36 99.23L369.12 99.23L369.12 100.98L364.24 100.98L364.24 114.80L362.26 114.80L362.26 100.98Z M383.00 114.80L381.02 114.80L381.02 99.23L386.35 99.23Q388.16 99.23 389.34 99.85Q390.51 100.47 391.08 101.56Q391.65 102.64 391.65 104.03L391.65 104.03Q391.65 105.42 391.08 106.49Q390.51 107.55 389.34 108.16Q388.17 108.76 386.36 108.76L386.36 108.76L382.12 108.76L382.12 106.99L386.26 106.99Q387.49 106.99 388.24 106.63Q388.99 106.27 389.33 105.61Q389.68 104.94 389.68 104.03L389.68 104.03Q389.68 103.10 389.33 102.42Q388.99 101.73 388.24 101.35Q387.48 100.97 386.24 100.97L386.24 100.97L383.00 100.97L383.00 114.80ZM392.26 114.80L389.96 114.80L386.20 107.78L388.43 107.78L392.26 114.80Z M413.36 114.80L403.78 114.80L403.78 99.23L413.26 99.23L413.26 100.98L405.76 100.98L405.76 106.06L412.75 106.06L412.75 107.82L405.76 107.82L405.76 113.04L413.36 113.04L413.36 114.80Z" fill="#3A332E"></path>
</svg>