<svg xmlns="http://www.w3.org/2000/svg" width="1130" height="1430" viewBox="0 0 1130 1430">
<defs></defs>
<path fill-rule="evenodd" fill="#2A2A2A" d="M322.00 24.50 C322.00 24.50 325.50 25.00 321.00 25.50 C316.50 26.00 302.67 26.50 295.00 27.50 C287.33 28.50 281.50 30.00 275.00 31.50 C268.50 33.00 262.50 34.50 256.00 36.50 C249.50 38.50 242.83 40.83 236.00 43.50 C229.17 46.17 222.00 49.17 215.00 52.50 C208.00 55.83 200.17 60.00 194.00 63.50 C187.83 67.00 183.83 69.50 178.00 73.50 C172.17 77.50 165.83 82.00 159.00 87.50 C152.17 93.00 142.75 101.25 137.00 106.50 C131.25 111.75 130.92 111.75 124.50 119.00 C118.08 126.25 107.00 138.33 98.50 150.00 C90.00 161.67 80.67 176.33 73.50 189.00 C66.33 201.67 60.00 215.50 55.50 226.00 C51.00 236.50 48.33 247.17 46.50 252.00 C44.67 256.83 45.83 251.17 44.50 255.00 C43.17 258.83 40.50 267.67 38.50 275.00 C36.50 282.33 34.17 290.67 32.50 299.00 C30.83 307.33 29.33 320.50 28.50 325.00 C27.67 329.50 28.00 321.83 27.50 326.00 C27.00 330.17 26.00 345.83 25.50 350.00 C25.00 354.17 24.50 351.00 24.50 351.00 C24.50 351.00 24.50 361.00 24.50 361.00 C24.50 361.00 23.50 362.00 23.50 362.00 C23.50 362.00 23.50 380.00 23.50 380.00 C23.50 380.00 22.50 381.00 22.50 381.00 C22.50 381.00 23.50 429.00 23.50 429.00 C23.50 429.00 24.50 430.00 24.50 430.00 C24.50 430.00 25.50 451.00 25.50 451.00 C25.50 451.00 25.83 447.50 26.50 452.00 C27.17 456.50 27.00 465.33 29.50 478.00 C32.00 490.67 37.00 512.83 41.50 528.00 C46.00 543.17 50.17 554.67 56.50 569.00 C62.83 583.33 72.67 602.00 79.50 614.00 C86.33 626.00 91.00 632.17 97.50 641.00 C104.00 649.83 110.75 658.42 118.50 667.00 C126.25 675.58 136.75 685.75 144.00 692.50 C151.25 699.25 155.17 702.33 162.00 707.50 C168.83 712.67 178.33 719.17 185.00 723.50 C191.67 727.83 195.00 729.83 202.00 733.50 C209.00 737.17 216.67 741.33 227.00 745.50 C237.33 749.67 253.17 755.33 264.00 758.50 C274.83 761.67 283.67 763.17 292.00 764.50 C300.33 765.83 310.17 766.00 314.00 766.50 C317.83 767.00 315.00 767.50 315.00 767.50 C315.00 767.50 359.00 768.50 359.00 768.50 C359.00 768.50 360.00 767.50 360.00 767.50 C360.00 767.50 399.00 766.50 399.00 766.50 C399.00 766.50 400.00 765.50 400.00 765.50 C400.00 765.50 411.00 765.50 411.00 765.50 C411.00 765.50 412.00 764.50 412.00 764.50 C412.00 764.50 421.00 764.50 421.00 764.50 C421.00 764.50 418.00 764.00 422.00 763.50 C426.00 763.00 438.17 762.50 445.00 761.50 C451.83 760.50 459.17 758.17 463.00 757.50 C466.83 756.83 459.00 759.33 468.00 757.50 C477.00 755.67 504.17 749.83 517.00 746.50 C529.83 743.17 545.00 737.50 545.00 737.50 C545.00 737.50 545.50 939.00 545.50 939.00 C545.50 939.00 544.50 940.00 544.50 940.00 C544.50 940.00 544.50 958.00 544.50 958.00 C544.50 958.00 543.50 959.00 543.50 959.00 C543.50 959.00 543.50 970.00 543.50 970.00 C543.50 970.00 542.83 968.33 542.50 971.00 C542.17 973.67 542.83 979.00 541.50 986.00 C540.17 993.00 536.67 1006.67 534.50 1013.00 C532.33 1019.33 531.08 1020.58 528.50 1024.00 C525.92 1027.42 522.08 1031.08 519.00 1033.50 C515.92 1035.92 513.67 1037.17 510.00 1038.50 C506.33 1039.83 500.50 1041.00 497.00 1041.50 C493.50 1042.00 489.00 1041.50 489.00 1041.50 C489.00 1041.50 488.50 1047.00 488.50 1047.00 C488.50 1047.00 657.00 1047.50 657.00 1047.50 C657.00 1047.50 657.00 1041.50 657.00 1041.50 C657.00 1041.50 643.50 1040.17 638.00 1038.50 C632.50 1036.83 627.50 1033.50 624.00 1031.50 C620.50 1029.50 621.25 1030.58 617.00 1026.50 C612.75 1022.42 603.08 1012.58 598.50 1007.00 C593.92 1001.42 593.00 999.67 589.50 993.00 C586.00 986.33 581.00 976.00 577.50 967.00 C574.00 958.00 571.17 948.83 568.50 939.00 C565.83 929.17 563.17 917.33 561.50 908.00 C559.83 898.67 559.17 887.33 558.50 883.00 C557.83 878.67 557.50 882.00 557.50 882.00 C557.50 882.00 557.50 875.00 557.50 875.00 C557.50 875.00 556.50 874.00 556.50 874.00 C556.50 874.00 556.50 866.00 556.50 866.00 C556.50 866.00 555.50 865.00 555.50 865.00 C555.50 865.00 554.50 842.00 554.50 842.00 C554.50 842.00 553.50 841.00 553.50 841.00 C553.50 841.00 553.50 823.00 553.50 823.00 C553.50 823.00 552.50 822.00 552.50 822.00 C552.50 822.00 553.00 457.50 553.00 457.50 C553.00 457.50 779.08 801.58 824.50 871.00 C869.92 940.42 822.00 868.67 825.50 874.00 C829.00 879.33 842.00 897.67 845.50 903.00 C849.00 908.33 843.00 900.67 846.50 906.00 C850.00 911.33 863.00 929.67 866.50 935.00 C870.00 940.33 864.00 932.67 867.50 938.00 C871.00 943.33 884.00 961.67 887.50 967.00 C891.00 972.33 885.00 964.67 888.50 970.00 C892.00 975.33 905.00 993.67 908.50 999.00 C912.00 1004.33 906.00 996.67 909.50 1002.00 C913.00 1007.33 926.00 1025.67 929.50 1031.00 C933.00 1036.33 927.67 1029.50 930.50 1034.00 C933.33 1038.50 943.42 1053.58 946.50 1058.00 C949.58 1062.42 949.00 1060.50 949.00 1060.50 C949.00 1060.50 954.00 1060.50 954.00 1060.50 C954.00 1060.50 954.50 544.00 954.50 544.00 C954.50 544.00 955.50 543.00 955.50 543.00 C955.50 543.00 956.50 504.00 956.50 504.00 C956.50 504.00 957.50 503.00 957.50 503.00 C957.50 503.00 957.50 494.00 957.50 494.00 C957.50 494.00 958.50 493.00 958.50 493.00 C958.50 493.00 957.83 491.33 958.50 487.00 C959.17 482.67 961.33 471.83 962.50 467.00 C963.67 462.17 963.83 461.67 965.50 458.00 C967.17 454.33 969.92 448.58 972.50 445.00 C975.08 441.42 978.08 438.75 981.00 436.50 C983.92 434.25 986.67 432.83 990.00 431.50 C993.33 430.17 997.50 429.00 1001.00 428.50 C1004.50 428.00 1011.00 428.50 1011.00 428.50 C1011.00 428.50 1012.50 427.00 1012.50 427.00 C1012.50 427.00 1012.00 421.50 1012.00 421.50 C1012.00 421.50 843.50 422.00 843.50 422.00 C843.50 422.00 844.00 428.50 844.00 428.50 C844.00 428.50 853.83 428.67 858.00 429.50 C862.17 430.33 865.50 431.83 869.00 433.50 C872.50 435.17 873.58 434.75 879.00 439.50 C884.42 444.25 896.08 455.58 901.50 462.00 C906.92 468.42 907.83 471.00 911.50 478.00 C915.17 485.00 920.17 495.50 923.50 504.00 C926.83 512.50 929.17 520.67 931.50 529.00 C933.83 537.33 936.50 549.00 937.50 554.00 C938.50 559.00 936.67 554.00 937.50 559.00 C938.33 564.00 941.33 575.67 942.50 584.00 C943.67 592.33 944.00 604.67 944.50 609.00 C945.00 613.33 945.50 610.00 945.50 610.00 C945.50 610.00 946.50 637.00 946.50 637.00 C946.50 637.00 947.50 638.00 947.50 638.00 C947.50 638.00 947.50 665.00 947.50 665.00 C947.50 665.00 948.50 666.00 948.50 666.00 C948.50 666.00 948.00 955.50 948.00 955.50 C948.00 955.50 598.00 421.50 598.00 421.50 C598.00 421.50 488.50 422.00 488.50 422.00 C488.50 422.00 489.00 428.50 489.00 428.50 C489.00 428.50 496.83 428.17 500.00 428.50 C503.17 428.83 504.50 429.00 508.00 430.50 C511.50 432.00 517.42 434.75 521.00 437.50 C524.58 440.25 527.25 443.75 529.50 447.00 C531.75 450.25 533.00 453.33 534.50 457.00 C536.00 460.67 537.33 464.50 538.50 469.00 C539.67 473.50 541.00 480.50 541.50 484.00 C542.00 487.50 541.50 490.00 541.50 490.00 C541.50 490.00 542.50 491.00 542.50 491.00 C542.50 491.00 543.50 512.00 543.50 512.00 C543.50 512.00 544.50 513.00 544.50 513.00 C544.50 513.00 544.50 534.00 544.50 534.00 C544.50 534.00 545.50 535.00 545.50 535.00 C545.50 535.00 547.83 617.33 545.50 639.00 C543.17 660.67 536.33 657.33 531.50 665.00 C526.67 672.67 522.92 677.75 516.50 685.00 C510.08 692.25 498.58 703.25 493.00 708.50 C487.42 713.75 487.67 713.17 483.00 716.50 C478.33 719.83 470.83 725.00 465.00 728.50 C459.17 732.00 455.50 734.17 448.00 737.50 C440.50 740.83 428.50 745.67 420.00 748.50 C411.50 751.33 403.83 753.17 397.00 754.50 C390.17 755.83 382.17 756.00 379.00 756.50 C375.83 757.00 378.00 757.50 378.00 757.50 C378.00 757.50 371.00 757.50 371.00 757.50 C371.00 757.50 370.00 758.50 370.00 758.50 C370.00 758.50 359.00 758.50 359.00 758.50 C359.00 758.50 358.00 759.50 358.00 759.50 C358.00 759.50 319.00 758.50 319.00 758.50 C319.00 758.50 321.00 758.00 318.00 757.50 C315.00 757.00 307.83 757.00 301.00 755.50 C294.17 754.00 281.50 750.00 277.00 748.50 C272.50 747.00 275.33 747.00 274.00 746.50 C272.67 746.00 275.00 748.33 269.00 745.50 C263.00 742.67 248.50 736.17 238.00 729.50 C227.50 722.83 216.42 714.75 206.00 705.50 C195.58 696.25 185.08 685.58 175.50 674.00 C165.92 662.42 156.67 649.33 148.50 636.00 C140.33 622.67 131.67 604.67 126.50 594.00 C121.33 583.33 120.50 580.00 117.50 572.00 C114.50 564.00 111.50 556.00 108.50 546.00 C105.50 536.00 102.00 522.67 99.50 512.00 C97.00 501.33 95.00 492.00 93.50 482.00 C92.00 472.00 91.17 457.17 90.50 452.00 C89.83 446.83 89.50 451.00 89.50 451.00 C89.50 451.00 89.50 441.00 89.50 441.00 C89.50 441.00 88.50 440.00 88.50 440.00 C88.50 440.00 87.50 365.00 87.50 365.00 C87.50 365.00 88.50 364.00 88.50 364.00 C88.50 364.00 88.50 350.00 88.50 350.00 C88.50 350.00 89.17 352.33 89.50 349.00 C89.83 345.67 90.17 333.33 90.50 330.00 C90.83 326.67 91.50 329.00 91.50 329.00 C91.50 329.00 91.50 322.00 91.50 322.00 C91.50 322.00 92.50 321.00 92.50 321.00 C92.50 321.00 92.50 314.00 92.50 314.00 C92.50 314.00 93.00 316.00 93.50 313.00 C94.00 310.00 93.50 306.17 95.50 296.00 C97.50 285.83 101.83 265.50 105.50 252.00 C109.17 238.50 113.33 226.33 117.50 215.00 C121.67 203.67 126.33 193.00 130.50 184.00 C134.67 175.00 138.33 168.33 142.50 161.00 C146.67 153.67 149.33 148.67 155.50 140.00 C161.67 131.33 170.75 118.75 179.50 109.00 C188.25 99.25 198.25 89.58 208.00 81.50 C217.75 73.42 229.33 65.83 238.00 60.50 C246.67 55.17 253.33 52.50 260.00 49.50 C266.67 46.50 270.33 44.83 278.00 42.50 C285.67 40.17 298.83 36.83 306.00 35.50 C313.17 34.17 318.33 34.83 321.00 34.50 C323.67 34.17 322.00 33.50 322.00 33.50 C322.00 33.50 368.00 33.50 368.00 33.50 C368.00 33.50 369.00 34.50 369.00 34.50 C369.00 34.50 379.00 34.50 379.00 34.50 C379.00 34.50 380.00 35.50 380.00 35.50 C380.00 35.50 387.00 35.50 387.00 35.50 C387.00 35.50 384.17 35.83 388.00 36.50 C391.83 37.17 402.00 37.67 410.00 39.50 C418.00 41.33 428.33 44.67 436.00 47.50 C443.67 50.33 448.83 52.33 456.00 56.50 C463.17 60.67 472.75 67.25 479.00 72.50 C485.25 77.75 489.25 82.58 493.50 88.00 C497.75 93.42 501.67 99.83 504.50 105.00 C507.33 110.17 508.83 114.33 510.50 119.00 C512.17 123.67 513.50 129.00 514.50 133.00 C515.50 137.00 516.17 140.17 516.50 143.00 C516.83 145.83 516.50 150.00 516.50 150.00 C516.50 150.00 517.50 151.00 517.50 151.00 C517.50 151.00 517.50 163.00 517.50 163.00 C517.50 163.00 518.50 164.00 518.50 164.00 C518.50 164.00 518.50 175.00 518.50 175.00 C518.50 175.00 517.83 174.00 517.50 176.00 C517.17 178.00 517.17 183.50 516.50 187.00 C515.83 190.50 515.17 192.83 513.50 197.00 C511.83 201.17 510.33 205.83 506.50 212.00 C502.67 218.17 497.25 226.25 490.50 234.00 C483.75 241.75 483.25 243.92 466.00 258.50 C448.75 273.08 405.75 305.58 387.00 321.50 C368.25 337.42 361.75 345.08 353.50 354.00 C345.25 362.92 342.33 367.33 337.50 375.00 C332.67 382.67 327.83 391.17 324.50 400.00 C321.17 408.83 318.67 419.67 317.50 428.00 C316.33 436.33 317.00 444.00 317.50 450.00 C318.00 456.00 318.83 458.83 320.50 464.00 C322.17 469.17 325.17 476.50 327.50 481.00 C329.83 485.50 331.25 487.42 334.50 491.00 C337.75 494.58 343.08 499.75 347.00 502.50 C350.92 505.25 354.33 506.50 358.00 507.50 C361.67 508.50 367.00 508.17 369.00 508.50 C371.00 508.83 370.00 509.50 370.00 509.50 C370.00 509.50 369.58 508.75 371.00 508.50 C372.42 508.25 378.50 508.00 378.50 508.00 C378.50 508.00 367.67 496.00 364.50 491.00 C361.33 486.00 360.33 481.00 359.50 478.00 C358.67 475.00 359.50 473.00 359.50 473.00 C359.50 473.00 358.50 472.00 358.50 472.00 C358.50 472.00 357.83 457.50 358.50 452.00 C359.17 446.50 360.50 443.67 362.50 439.00 C364.50 434.33 367.33 428.83 370.50 424.00 C373.67 419.17 376.08 415.92 381.50 410.00 C386.92 404.08 387.75 401.75 403.00 388.50 C418.25 375.25 455.08 346.25 473.00 330.50 C490.92 314.75 501.92 302.92 510.50 294.00 C519.08 285.08 519.67 283.67 524.50 277.00 C529.33 270.33 535.50 260.83 539.50 254.00 C543.50 247.17 545.83 242.33 548.50 236.00 C551.17 229.67 554.17 220.67 555.50 216.00 C556.83 211.33 556.00 210.17 556.50 208.00 C557.00 205.83 558.00 206.17 558.50 203.00 C559.00 199.83 559.17 191.50 559.50 189.00 C559.83 186.50 560.50 188.00 560.50 188.00 C560.50 188.00 560.50 166.00 560.50 166.00 C560.50 166.00 559.50 165.00 559.50 165.00 C559.50 165.00 560.00 160.67 559.50 157.00 C559.00 153.33 558.00 148.17 556.50 143.00 C555.00 137.83 553.50 132.50 550.50 126.00 C547.50 119.50 542.17 109.83 538.50 104.00 C534.83 98.17 533.58 96.42 528.50 91.00 C523.42 85.58 515.08 77.25 508.00 71.50 C500.92 65.75 493.00 60.67 486.00 56.50 C479.00 52.33 471.33 49.00 466.00 46.50 C460.67 44.00 460.50 43.67 454.00 41.50 C447.50 39.33 435.67 35.67 427.00 33.50 C418.33 31.33 410.33 29.67 402.00 28.50 C393.67 27.33 381.33 27.00 377.00 26.50 C372.67 26.00 376.00 25.50 376.00 25.50 C376.00 25.50 332.00 24.67 323.00 24.50 C314.00 24.33 322.00 24.50 322.00 24.50 Z"></path>
<line x1="305.1" y1="1115" x2="824.9" y2="1115" stroke="#4a3f44" stroke-width="3"></line>
<text class="mn" x="565" y="1290" font-size="72" text-anchor="middle" dx="17">MANUCURE</text>
</svg>